<svg width="729.395" height="108.398" viewBox="0 0 729.395 108.398" xmlns="http://www.w3.org/2000/svg"><g id="svgGroup" stroke-linecap="round" fill-rule="evenodd" font-size="9pt" stroke="#000" stroke-width="0.25mm" fill="#000" style="stroke:#000;stroke-width:0.25mm;fill:#000"><path d="M 677.295 73.486 L 686.914 65.625 Q 688.233 68.115 690.406 70.142 A 30.357 30.357 0 0 0 694.049 73.064 A 27.395 27.395 0 0 0 694.922 73.633 Q 697.266 75.098 699.463 75.879 A 19.223 19.223 0 0 0 700.725 76.282 Q 702.077 76.66 703.028 76.66 A 41.132 41.132 0 0 0 704.145 76.644 Q 704.731 76.628 705.38 76.596 A 67.929 67.929 0 0 0 705.567 76.587 A 29.793 29.793 0 0 0 708.448 76.294 A 19.43 19.43 0 0 0 711.329 75.635 A 9.744 9.744 0 0 0 713.05 74.921 A 8.366 8.366 0 0 0 713.843 74.438 A 5.786 5.786 0 0 0 715.601 72.534 A 4.833 4.833 0 0 0 716.151 71.008 A 6.661 6.661 0 0 0 716.26 69.775 A 5.448 5.448 0 0 0 716.019 68.129 A 4.721 4.721 0 0 0 715.406 66.87 A 8.096 8.096 0 0 0 713.679 65.056 A 9.525 9.525 0 0 0 713.184 64.697 A 13.206 13.206 0 0 0 711.145 63.571 A 15.995 15.995 0 0 0 710.059 63.135 A 46.93 46.93 0 0 0 706.519 62.012 Q 704.737 61.523 703.077 61.157 A 70.406 70.406 0 0 1 701.893 60.886 Q 700.959 60.663 700.196 60.449 A 274.165 274.165 0 0 0 697.889 59.808 A 317.858 317.858 0 0 0 695.459 59.155 A 66.211 66.211 0 0 1 690.528 57.642 A 34.18 34.18 0 0 1 685.865 55.615 A 17.107 17.107 0 0 1 682.498 53.307 A 15.71 15.71 0 0 1 681.958 52.808 A 12.442 12.442 0 0 1 679.273 48.95 A 11.015 11.015 0 0 1 678.463 46.211 A 15.082 15.082 0 0 1 678.272 43.75 A 22.774 22.774 0 0 1 678.617 39.675 Q 679.048 37.304 680.019 35.376 A 13.422 13.422 0 0 1 680.445 34.595 A 17.05 17.05 0 0 1 686.182 28.687 A 23.609 23.609 0 0 1 692.348 26.005 A 27.994 27.994 0 0 1 694.287 25.537 Q 698.829 24.609 703.516 24.609 A 35.347 35.347 0 0 1 708.105 24.92 A 42.292 42.292 0 0 1 710.303 25.269 A 39.16 39.16 0 0 1 717.237 27.222 A 35.57 35.57 0 0 1 723.536 30.371 A 21.548 21.548 0 0 1 726.807 32.892 A 18.191 18.191 0 0 1 728.418 34.619 L 718.799 42.529 A 18.701 18.701 0 0 0 717.382 39.496 A 15.247 15.247 0 0 0 715.992 37.5 A 18.439 18.439 0 0 0 713.71 35.171 A 15.614 15.614 0 0 0 712.232 34.058 A 16.256 16.256 0 0 0 709.334 32.519 A 14.277 14.277 0 0 0 708.081 32.08 A 16.305 16.305 0 0 0 706.16 31.624 A 11.946 11.946 0 0 0 704.151 31.445 Q 702.45 31.445 700.337 31.583 A 82.223 82.223 0 0 0 700.196 31.592 A 15.678 15.678 0 0 0 696.833 32.175 A 14.22 14.22 0 0 0 696.07 32.422 A 8.467 8.467 0 0 0 693.322 34 A 8.096 8.096 0 0 0 692.798 34.497 Q 691.487 35.856 691.456 38.215 A 8.744 8.744 0 0 0 691.455 38.33 Q 691.455 40.088 692.261 41.333 A 7.499 7.499 0 0 0 694.064 43.25 A 8.703 8.703 0 0 0 694.385 43.481 A 12.603 12.603 0 0 0 696.371 44.585 A 15.071 15.071 0 0 0 697.388 44.995 A 40.242 40.242 0 0 0 700.83 46.069 Q 702.588 46.533 704.248 46.875 A 42.471 42.471 0 0 1 705.823 47.229 A 31.043 31.043 0 0 1 707.227 47.607 A 239.17 239.17 0 0 0 709.54 48.248 A 281.097 281.097 0 0 0 711.988 48.901 Q 714.502 49.561 716.944 50.415 A 38.99 38.99 0 0 1 721.656 52.417 A 16.297 16.297 0 0 1 725.087 54.718 A 15.041 15.041 0 0 1 725.635 55.225 A 12.887 12.887 0 0 1 728.37 59.106 A 10.761 10.761 0 0 1 729.184 61.777 Q 729.395 62.984 729.395 64.355 A 21.892 21.892 0 0 1 729.143 67.756 A 16.411 16.411 0 0 1 728.321 70.947 A 16.685 16.685 0 0 1 726.424 74.624 A 14.859 14.859 0 0 1 725.391 75.952 A 16.768 16.768 0 0 1 720.996 79.517 A 26.605 26.605 0 0 1 715.552 81.836 A 36.249 36.249 0 0 1 709.473 83.105 Q 706.299 83.496 703.174 83.496 A 56.189 56.189 0 0 1 699.687 83.393 Q 697.565 83.261 695.752 82.959 Q 692.53 82.422 689.6 81.226 Q 686.67 80.029 683.765 78.125 A 87.157 87.157 0 0 1 681.097 76.3 Q 679.749 75.343 678.285 74.239 A 149.363 149.363 0 0 1 677.295 73.486 Z M 126.026 49.561 L 143.409 57.813 Q 141.651 61.475 139.331 64.844 Q 137.012 68.213 134.131 71.143 L 140.479 77.148 L 129.395 85.107 L 123.731 79.102 A 38.176 38.176 0 0 1 114.502 82.642 A 41.941 41.941 0 0 1 104.688 83.789 A 95.535 95.535 0 0 1 98.943 83.611 A 108.54 108.54 0 0 1 96.949 83.472 Q 92.92 83.154 88.99 82.3 A 38.926 38.926 0 0 1 81.519 79.883 A 22.996 22.996 0 0 1 76.347 76.764 A 21.131 21.131 0 0 1 75.318 75.879 A 18.153 18.153 0 0 1 71.12 70.079 A 20.644 20.644 0 0 1 71.07 69.971 A 16.813 16.813 0 0 1 69.831 65.929 Q 69.505 64.109 69.484 62.044 A 27.943 27.943 0 0 1 69.483 61.768 A 17.396 17.396 0 0 1 70.266 56.503 A 16.084 16.084 0 0 1 70.874 54.883 Q 72.266 51.709 74.634 49.243 A 22.258 22.258 0 0 1 80.103 45.093 A 24.133 24.133 0 0 1 86.67 42.676 A 20.761 20.761 0 0 1 84.459 40.917 A 25.123 25.123 0 0 1 83.326 39.819 A 24.499 24.499 0 0 1 80.396 36.157 A 20.965 20.965 0 0 1 78.296 32.031 A 12.383 12.383 0 0 1 77.519 28.54 A 11.483 11.483 0 0 1 77.491 27.734 Q 77.491 23.047 79.468 19.824 A 15.735 15.735 0 0 1 84.62 14.624 A 22.073 22.073 0 0 1 90.309 12.136 A 25.687 25.687 0 0 1 91.773 11.768 A 36.915 36.915 0 0 1 99.756 10.889 A 37.702 37.702 0 0 1 107.764 11.768 A 23.974 23.974 0 0 1 113.174 13.611 A 21.429 21.429 0 0 1 115.064 14.648 Q 118.311 16.65 120.362 19.849 A 12.584 12.584 0 0 1 122.071 24.156 A 17.794 17.794 0 0 1 122.412 27.734 A 14.824 14.824 0 0 1 121.972 31.41 A 12.595 12.595 0 0 1 121.094 33.813 Q 119.776 36.523 117.627 38.696 Q 115.479 40.869 112.793 42.578 A 64.692 64.692 0 0 1 107.506 45.611 A 59.878 59.878 0 0 1 107.422 45.654 L 123.78 61.23 A 34.595 34.595 0 0 0 125.44 55.493 A 30.422 30.422 0 0 0 126.026 49.561 Z M 337.5 75.635 L 337.5 108.398 L 320.996 108.398 L 320.996 25.977 L 327.344 25.977 L 334.668 38.232 A 20.632 20.632 0 0 1 337.622 32.642 Q 339.502 30.127 341.968 28.345 A 19.801 19.801 0 0 1 347.388 25.586 Q 350.342 24.609 353.614 24.609 A 30.981 30.981 0 0 1 360.031 25.248 A 24.827 24.827 0 0 1 365.137 26.904 A 25.09 25.09 0 0 1 373.731 33.179 A 27.221 27.221 0 0 1 378.739 41.534 A 31.324 31.324 0 0 1 379.102 42.529 A 34.364 34.364 0 0 1 380.912 52.149 A 39.636 39.636 0 0 1 380.957 54.053 Q 380.957 60.205 379.102 65.576 A 28.127 28.127 0 0 1 375.19 73.119 A 26.041 26.041 0 0 1 373.731 74.927 A 25.09 25.09 0 0 1 365.137 81.201 A 25.67 25.67 0 0 1 357.883 83.225 A 32.608 32.608 0 0 1 353.614 83.496 A 21.965 21.965 0 0 1 347.213 82.584 A 19.867 19.867 0 0 1 344.556 81.567 A 17.923 17.923 0 0 1 338.348 76.72 A 21.594 21.594 0 0 1 337.5 75.635 Z M 408.057 75.635 L 408.057 108.398 L 391.553 108.398 L 391.553 25.977 L 397.901 25.977 L 405.225 38.232 A 20.632 20.632 0 0 1 408.179 32.642 Q 410.059 30.127 412.525 28.345 A 19.801 19.801 0 0 1 417.945 25.586 Q 420.899 24.609 424.17 24.609 A 30.981 30.981 0 0 1 430.588 25.248 A 24.827 24.827 0 0 1 435.694 26.904 A 25.09 25.09 0 0 1 444.287 33.179 A 27.221 27.221 0 0 1 449.296 41.534 A 31.324 31.324 0 0 1 449.659 42.529 A 34.364 34.364 0 0 1 451.469 52.149 A 39.636 39.636 0 0 1 451.514 54.053 Q 451.514 60.205 449.659 65.576 A 28.127 28.127 0 0 1 445.746 73.119 A 26.041 26.041 0 0 1 444.287 74.927 A 25.09 25.09 0 0 1 435.694 81.201 A 25.67 25.67 0 0 1 428.44 83.225 A 32.608 32.608 0 0 1 424.17 83.496 A 21.965 21.965 0 0 1 417.77 82.584 A 19.867 19.867 0 0 1 415.113 81.567 A 17.923 17.923 0 0 1 408.905 76.72 A 21.594 21.594 0 0 1 408.057 75.635 Z M 631.592 65.967 L 638.721 68.604 Q 637.11 72.461 634.302 75.269 A 25.472 25.472 0 0 1 627.954 79.907 Q 624.414 81.738 620.435 82.617 Q 616.455 83.496 612.549 83.496 Q 606.104 83.496 600.635 81.323 A 28.16 28.16 0 0 1 592.224 76.194 A 26.81 26.81 0 0 1 591.211 75.244 A 27.969 27.969 0 0 1 585.081 66.087 A 31.812 31.812 0 0 1 585.01 65.918 A 29.805 29.805 0 0 1 582.85 56.531 A 35.365 35.365 0 0 1 582.764 54.053 A 32.299 32.299 0 0 1 583.731 46.035 A 28.369 28.369 0 0 1 585.01 42.187 A 28.139 28.139 0 0 1 590.694 33.387 A 27.068 27.068 0 0 1 591.211 32.861 Q 595.166 28.955 600.635 26.782 A 31.119 31.119 0 0 1 610.167 24.686 A 36.696 36.696 0 0 1 612.549 24.609 A 47.962 47.962 0 0 1 618.844 25.035 A 52.337 52.337 0 0 1 618.946 25.049 A 38.978 38.978 0 0 1 625.293 26.44 A 30.708 30.708 0 0 1 631.104 28.906 Q 633.838 30.42 635.865 32.642 Q 637.891 34.863 639.087 37.793 Q 640.284 40.723 640.284 44.482 A 18.312 18.312 0 0 1 640.003 47.76 A 14.172 14.172 0 0 1 639.161 50.659 A 15.591 15.591 0 0 1 636.109 55.42 Q 634.18 57.471 631.641 58.887 Q 629.102 60.303 626.221 61.206 A 34.375 34.375 0 0 1 620.288 62.5 A 47.3 47.3 0 0 1 615.079 62.885 A 42.972 42.972 0 0 1 614.356 62.891 A 50.695 50.695 0 0 1 607.129 62.378 Q 603.565 61.865 600.098 60.742 Q 600.635 63.965 601.807 66.87 A 17.427 17.427 0 0 0 604.171 71.035 A 16.021 16.021 0 0 0 604.932 71.948 A 13.876 13.876 0 0 0 609.214 75.145 A 16.063 16.063 0 0 0 609.742 75.391 Q 612.514 76.623 616.276 76.659 A 23.758 23.758 0 0 0 616.504 76.66 Q 619.092 76.66 621.436 75.879 Q 623.78 75.098 625.733 73.682 Q 627.686 72.266 629.175 70.313 A 17.639 17.639 0 0 0 631.592 65.967 Z M 59.961 25.977 L 59.961 82.373 L 43.457 82.373 L 43.457 75.635 A 19.328 19.328 0 0 1 39.357 79.808 A 17.241 17.241 0 0 1 36.402 81.567 A 20.756 20.756 0 0 1 28.602 83.464 A 24.459 24.459 0 0 1 27.344 83.496 A 30.981 30.981 0 0 1 20.927 82.858 A 24.827 24.827 0 0 1 15.821 81.201 A 25.09 25.09 0 0 1 7.227 74.927 A 27.221 27.221 0 0 1 2.218 66.571 A 31.324 31.324 0 0 1 1.856 65.576 A 34.364 34.364 0 0 1 0.046 55.956 A 39.636 39.636 0 0 1 0 54.053 Q 0 47.9 1.856 42.529 A 28.127 28.127 0 0 1 5.768 34.986 A 26.041 26.041 0 0 1 7.227 33.179 A 25.09 25.09 0 0 1 15.821 26.904 A 25.67 25.67 0 0 1 23.075 24.881 A 32.608 32.608 0 0 1 27.344 24.609 A 19.706 19.706 0 0 1 33.57 25.586 A 19.801 19.801 0 0 1 38.99 28.345 A 20.135 20.135 0 0 1 43.335 32.642 A 20.632 20.632 0 0 1 46.289 38.232 L 53.614 25.977 L 59.961 25.977 Z M 208.35 25.977 L 208.35 82.373 L 191.846 82.373 L 191.846 75.635 A 19.328 19.328 0 0 1 187.745 79.808 A 17.241 17.241 0 0 1 184.79 81.567 A 20.756 20.756 0 0 1 176.991 83.464 A 24.459 24.459 0 0 1 175.733 83.496 A 30.981 30.981 0 0 1 169.315 82.858 A 24.827 24.827 0 0 1 164.209 81.201 A 25.09 25.09 0 0 1 155.616 74.927 A 27.221 27.221 0 0 1 150.607 66.571 A 31.324 31.324 0 0 1 150.245 65.576 A 34.364 34.364 0 0 1 148.434 55.956 A 39.636 39.636 0 0 1 148.389 54.053 Q 148.389 47.9 150.245 42.529 A 28.127 28.127 0 0 1 154.157 34.986 A 26.041 26.041 0 0 1 155.616 33.179 A 25.09 25.09 0 0 1 164.209 26.904 A 25.67 25.67 0 0 1 171.463 24.881 A 32.608 32.608 0 0 1 175.733 24.609 A 19.706 19.706 0 0 1 181.958 25.586 A 19.801 19.801 0 0 1 187.378 28.345 A 20.135 20.135 0 0 1 191.724 32.642 A 20.632 20.632 0 0 1 194.678 38.232 L 202.002 25.977 L 208.35 25.977 Z M 307.227 25.977 L 307.227 82.373 L 290.723 82.373 L 290.723 75.635 A 19.328 19.328 0 0 1 286.622 79.808 A 17.241 17.241 0 0 1 283.667 81.567 A 20.756 20.756 0 0 1 275.868 83.464 A 24.459 24.459 0 0 1 274.61 83.496 A 30.981 30.981 0 0 1 268.192 82.858 A 24.827 24.827 0 0 1 263.086 81.201 A 25.09 25.09 0 0 1 254.493 74.927 A 27.221 27.221 0 0 1 249.484 66.571 A 31.324 31.324 0 0 1 249.121 65.576 A 34.364 34.364 0 0 1 247.311 55.956 A 39.636 39.636 0 0 1 247.266 54.053 Q 247.266 47.9 249.121 42.529 A 28.127 28.127 0 0 1 253.034 34.986 A 26.041 26.041 0 0 1 254.493 33.179 A 25.09 25.09 0 0 1 263.086 26.904 A 25.67 25.67 0 0 1 270.34 24.881 A 32.608 32.608 0 0 1 274.61 24.609 A 19.706 19.706 0 0 1 280.835 25.586 A 19.801 19.801 0 0 1 286.255 28.345 A 20.135 20.135 0 0 1 290.601 32.642 A 20.632 20.632 0 0 1 293.555 38.232 L 300.879 25.977 L 307.227 25.977 Z M 518.897 25.977 L 518.897 82.373 L 502.393 82.373 L 502.393 75.635 A 19.328 19.328 0 0 1 498.292 79.808 A 17.241 17.241 0 0 1 495.337 81.567 A 20.756 20.756 0 0 1 487.538 83.464 A 24.459 24.459 0 0 1 486.28 83.496 A 30.981 30.981 0 0 1 479.862 82.858 A 24.827 24.827 0 0 1 474.756 81.201 A 25.09 25.09 0 0 1 466.162 74.927 A 27.221 27.221 0 0 1 461.154 66.571 A 31.324 31.324 0 0 1 460.791 65.576 A 34.364 34.364 0 0 1 458.981 55.956 A 39.636 39.636 0 0 1 458.936 54.053 Q 458.936 47.9 460.791 42.529 A 28.127 28.127 0 0 1 464.704 34.986 A 26.041 26.041 0 0 1 466.162 33.179 A 25.09 25.09 0 0 1 474.756 26.904 A 25.67 25.67 0 0 1 482.01 24.881 A 32.608 32.608 0 0 1 486.28 24.609 A 19.706 19.706 0 0 1 492.505 25.586 A 19.801 19.801 0 0 1 497.925 28.345 A 20.135 20.135 0 0 1 502.271 32.642 A 20.632 20.632 0 0 1 505.225 38.232 L 512.549 25.977 L 518.897 25.977 Z M 580.616 30.957 L 571.338 46.338 A 53.039 53.039 0 0 0 570.76 44.535 Q 570.45 43.621 570.079 42.62 A 89.107 89.107 0 0 0 569.825 41.943 A 24.459 24.459 0 0 0 567.53 37.378 A 13.827 13.827 0 0 0 564.552 34.043 A 13.113 13.113 0 0 0 564.258 33.813 A 7.086 7.086 0 0 0 559.864 32.373 A 7.552 7.552 0 0 0 557.721 32.666 A 6.323 6.323 0 0 0 555.884 33.545 Q 554.2 34.717 553.028 36.597 Q 551.856 38.477 551.099 40.845 Q 550.342 43.213 549.927 45.63 Q 549.512 48.047 549.366 50.269 A 79.608 79.608 0 0 0 549.276 51.849 Q 549.241 52.627 549.227 53.313 A 40.371 40.371 0 0 0 549.219 54.102 L 549.219 82.373 L 532.666 82.373 L 532.666 25.977 L 539.014 25.977 L 545.704 39.111 A 38.339 38.339 0 0 1 548.131 34.379 A 34.136 34.136 0 0 1 548.829 33.276 A 21.466 21.466 0 0 1 552.316 29.18 A 19.919 19.919 0 0 1 552.881 28.687 A 17.38 17.38 0 0 1 558.081 25.684 A 17.016 17.016 0 0 1 561.798 24.787 A 22.096 22.096 0 0 1 564.649 24.609 A 27.09 27.09 0 0 1 566.663 24.689 Q 567.692 24.766 568.824 24.917 A 43.487 43.487 0 0 1 568.897 24.927 A 24.738 24.738 0 0 1 573.487 26.001 A 18.747 18.747 0 0 1 577.637 27.979 A 9.84 9.84 0 0 1 579.693 29.714 A 8.65 8.65 0 0 1 580.616 30.957 Z M 667.09 17.139 L 667.09 82.373 L 650.586 82.373 L 650.586 0 L 656.934 0 L 667.09 17.139 Z M 43.36 54.053 A 49.251 49.251 0 0 0 43.256 50.916 A 58.011 58.011 0 0 0 43.14 49.414 A 37.317 37.317 0 0 0 42.383 44.58 Q 41.846 42.188 40.894 40.015 A 14.693 14.693 0 0 0 38.545 36.263 A 13.937 13.937 0 0 0 38.453 36.157 Q 36.963 34.473 34.864 33.496 A 10.252 10.252 0 0 0 32.129 32.681 A 13.735 13.735 0 0 0 29.981 32.52 A 13.033 13.033 0 0 0 27.609 32.725 A 9.543 9.543 0 0 0 25.147 33.521 Q 23.096 34.521 21.631 36.206 A 14.704 14.704 0 0 0 19.429 39.613 A 16.708 16.708 0 0 0 19.214 40.088 Q 18.262 42.285 17.725 44.678 A 37.391 37.391 0 0 0 16.968 49.487 A 54.132 54.132 0 0 0 16.779 52.404 A 45.06 45.06 0 0 0 16.748 54.053 A 47.674 47.674 0 0 0 16.834 56.853 A 58.063 58.063 0 0 0 16.968 58.643 A 37.317 37.317 0 0 0 17.725 63.477 Q 18.262 65.869 19.214 68.066 A 15.178 15.178 0 0 0 21.1 71.299 A 13.89 13.89 0 0 0 21.631 71.948 A 10.998 10.998 0 0 0 25.147 74.634 A 9.582 9.582 0 0 0 27.686 75.443 A 13.107 13.107 0 0 0 29.981 75.635 A 10.485 10.485 0 0 0 32.52 75.338 A 8.66 8.66 0 0 0 34.497 74.585 A 11.711 11.711 0 0 0 37.964 71.777 A 16.971 16.971 0 0 0 40.215 68.327 A 19.154 19.154 0 0 0 40.479 67.773 A 29.147 29.147 0 0 0 42.139 63.135 A 35.595 35.595 0 0 0 43.067 58.374 A 41.141 41.141 0 0 0 43.287 56.11 A 30.463 30.463 0 0 0 43.36 54.053 Z M 191.748 54.053 A 49.251 49.251 0 0 0 191.645 50.916 A 58.011 58.011 0 0 0 191.529 49.414 A 37.317 37.317 0 0 0 190.772 44.58 Q 190.235 42.188 189.283 40.015 A 14.693 14.693 0 0 0 186.934 36.263 A 13.937 13.937 0 0 0 186.841 36.157 Q 185.352 34.473 183.252 33.496 A 10.252 10.252 0 0 0 180.518 32.681 A 13.735 13.735 0 0 0 178.37 32.52 A 13.033 13.033 0 0 0 175.998 32.725 A 9.543 9.543 0 0 0 173.536 33.521 Q 171.485 34.521 170.02 36.206 A 14.704 14.704 0 0 0 167.817 39.613 A 16.708 16.708 0 0 0 167.603 40.088 Q 166.651 42.285 166.114 44.678 A 37.391 37.391 0 0 0 165.357 49.487 A 54.132 54.132 0 0 0 165.168 52.404 A 45.06 45.06 0 0 0 165.137 54.053 A 47.674 47.674 0 0 0 165.223 56.853 A 58.063 58.063 0 0 0 165.357 58.643 A 37.317 37.317 0 0 0 166.114 63.477 Q 166.651 65.869 167.603 68.066 A 15.178 15.178 0 0 0 169.489 71.299 A 13.89 13.89 0 0 0 170.02 71.948 A 10.998 10.998 0 0 0 173.536 74.634 A 9.582 9.582 0 0 0 176.074 75.443 A 13.107 13.107 0 0 0 178.37 75.635 A 10.485 10.485 0 0 0 180.909 75.338 A 8.66 8.66 0 0 0 182.886 74.585 A 11.711 11.711 0 0 0 186.353 71.777 A 16.971 16.971 0 0 0 188.604 68.327 A 19.154 19.154 0 0 0 188.868 67.773 A 29.147 29.147 0 0 0 190.528 63.135 A 35.595 35.595 0 0 0 191.455 58.374 A 41.141 41.141 0 0 0 191.675 56.11 A 30.463 30.463 0 0 0 191.748 54.053 Z M 290.625 54.053 A 49.251 49.251 0 0 0 290.522 50.916 A 58.011 58.011 0 0 0 290.406 49.414 A 37.317 37.317 0 0 0 289.649 44.58 Q 289.112 42.188 288.16 40.015 A 14.693 14.693 0 0 0 285.811 36.263 A 13.937 13.937 0 0 0 285.718 36.157 Q 284.229 34.473 282.129 33.496 A 10.252 10.252 0 0 0 279.395 32.681 A 13.735 13.735 0 0 0 277.246 32.52 A 13.033 13.033 0 0 0 274.875 32.725 A 9.543 9.543 0 0 0 272.412 33.521 Q 270.362 34.521 268.897 36.206 A 14.704 14.704 0 0 0 266.694 39.613 A 16.708 16.708 0 0 0 266.48 40.088 Q 265.528 42.285 264.991 44.678 A 37.391 37.391 0 0 0 264.234 49.487 A 54.132 54.132 0 0 0 264.045 52.404 A 45.06 45.06 0 0 0 264.014 54.053 A 47.674 47.674 0 0 0 264.1 56.853 A 58.063 58.063 0 0 0 264.234 58.643 A 37.317 37.317 0 0 0 264.991 63.477 Q 265.528 65.869 266.48 68.066 A 15.178 15.178 0 0 0 268.366 71.299 A 13.89 13.89 0 0 0 268.897 71.948 A 10.998 10.998 0 0 0 272.412 74.634 A 9.582 9.582 0 0 0 274.951 75.443 A 13.107 13.107 0 0 0 277.246 75.635 A 10.485 10.485 0 0 0 279.786 75.338 A 8.66 8.66 0 0 0 281.763 74.585 A 11.711 11.711 0 0 0 285.23 71.777 A 16.971 16.971 0 0 0 287.481 68.327 A 19.154 19.154 0 0 0 287.745 67.773 A 29.147 29.147 0 0 0 289.405 63.135 A 35.595 35.595 0 0 0 290.332 58.374 A 41.141 41.141 0 0 0 290.552 56.11 A 30.463 30.463 0 0 0 290.625 54.053 Z M 502.295 54.053 A 49.251 49.251 0 0 0 502.191 50.916 A 58.011 58.011 0 0 0 502.076 49.414 A 37.317 37.317 0 0 0 501.319 44.58 Q 500.782 42.188 499.829 40.015 A 14.693 14.693 0 0 0 497.481 36.263 A 13.937 13.937 0 0 0 497.388 36.157 Q 495.899 34.473 493.799 33.496 A 10.252 10.252 0 0 0 491.065 32.681 A 13.735 13.735 0 0 0 488.916 32.52 A 13.033 13.033 0 0 0 486.545 32.725 A 9.543 9.543 0 0 0 484.082 33.521 Q 482.032 34.521 480.567 36.206 A 14.704 14.704 0 0 0 478.364 39.613 A 16.708 16.708 0 0 0 478.15 40.088 Q 477.198 42.285 476.661 44.678 A 37.391 37.391 0 0 0 475.904 49.487 A 54.132 54.132 0 0 0 475.715 52.404 A 45.06 45.06 0 0 0 475.684 54.053 A 47.674 47.674 0 0 0 475.77 56.853 A 58.063 58.063 0 0 0 475.904 58.643 A 37.317 37.317 0 0 0 476.661 63.477 Q 477.198 65.869 478.15 68.066 A 15.178 15.178 0 0 0 480.036 71.299 A 13.89 13.89 0 0 0 480.567 71.948 A 10.998 10.998 0 0 0 484.082 74.634 A 9.582 9.582 0 0 0 486.621 75.443 A 13.107 13.107 0 0 0 488.916 75.635 A 10.485 10.485 0 0 0 491.456 75.338 A 8.66 8.66 0 0 0 493.433 74.585 A 11.711 11.711 0 0 0 496.9 71.777 A 16.971 16.971 0 0 0 499.151 68.327 A 19.154 19.154 0 0 0 499.414 67.773 A 29.147 29.147 0 0 0 501.075 63.135 A 35.595 35.595 0 0 0 502.002 58.374 A 41.141 41.141 0 0 0 502.222 56.11 A 30.463 30.463 0 0 0 502.295 54.053 Z M 364.209 54.053 A 47.192 47.192 0 0 0 364.124 51.262 A 56.636 56.636 0 0 0 363.99 49.487 A 37.391 37.391 0 0 0 363.233 44.678 Q 362.696 42.285 361.744 40.088 A 15.178 15.178 0 0 0 359.858 36.856 A 13.89 13.89 0 0 0 359.327 36.206 Q 357.862 34.521 355.787 33.521 Q 353.711 32.52 350.977 32.52 A 13.857 13.857 0 0 0 348.644 32.706 Q 347.237 32.947 346.07 33.496 A 10.893 10.893 0 0 0 342.505 36.157 A 14.639 14.639 0 0 0 340.094 39.947 A 16.354 16.354 0 0 0 340.064 40.015 A 24.975 24.975 0 0 0 338.575 44.58 A 37.317 37.317 0 0 0 337.818 49.414 Q 337.598 51.855 337.598 54.053 Q 337.598 56.006 337.891 58.374 A 35.595 35.595 0 0 0 338.819 63.135 Q 339.454 65.527 340.479 67.773 A 17.509 17.509 0 0 0 342.495 71.159 A 16.001 16.001 0 0 0 342.994 71.777 A 11.711 11.711 0 0 0 346.46 74.585 A 8.974 8.974 0 0 0 349.593 75.552 A 11.24 11.24 0 0 0 350.977 75.635 A 13.033 13.033 0 0 0 353.349 75.429 A 9.543 9.543 0 0 0 355.811 74.634 Q 357.862 73.633 359.327 71.948 A 14.704 14.704 0 0 0 361.529 68.541 A 16.708 16.708 0 0 0 361.744 68.066 Q 362.696 65.869 363.233 63.477 A 37.317 37.317 0 0 0 363.99 58.643 A 55.301 55.301 0 0 0 364.178 55.705 A 45.34 45.34 0 0 0 364.209 54.053 Z M 434.766 54.053 A 47.192 47.192 0 0 0 434.68 51.262 A 56.636 56.636 0 0 0 434.546 49.487 A 37.391 37.391 0 0 0 433.789 44.678 Q 433.252 42.285 432.3 40.088 A 15.178 15.178 0 0 0 430.414 36.856 A 13.89 13.89 0 0 0 429.883 36.206 Q 428.418 34.521 426.343 33.521 Q 424.268 32.52 421.534 32.52 A 13.857 13.857 0 0 0 419.2 32.706 Q 417.794 32.947 416.626 33.496 A 10.893 10.893 0 0 0 413.062 36.157 A 14.639 14.639 0 0 0 410.65 39.947 A 16.354 16.354 0 0 0 410.621 40.015 A 24.975 24.975 0 0 0 409.131 44.58 A 37.317 37.317 0 0 0 408.374 49.414 Q 408.155 51.855 408.155 54.053 Q 408.155 56.006 408.448 58.374 A 35.595 35.595 0 0 0 409.375 63.135 Q 410.01 65.527 411.036 67.773 A 17.509 17.509 0 0 0 413.052 71.159 A 16.001 16.001 0 0 0 413.55 71.777 A 11.711 11.711 0 0 0 417.017 74.585 A 8.974 8.974 0 0 0 420.15 75.552 A 11.24 11.24 0 0 0 421.534 75.635 A 13.033 13.033 0 0 0 423.905 75.429 A 9.543 9.543 0 0 0 426.368 74.634 Q 428.418 73.633 429.883 71.948 A 14.704 14.704 0 0 0 432.086 68.541 A 16.708 16.708 0 0 0 432.3 68.066 Q 433.252 65.869 433.789 63.477 A 37.317 37.317 0 0 0 434.546 58.643 A 55.301 55.301 0 0 0 434.735 55.705 A 45.34 45.34 0 0 0 434.766 54.053 Z M 599.61 55.615 Q 602.637 56.299 605.664 56.689 Q 608.692 57.08 611.768 57.08 A 29.926 29.926 0 0 0 615.523 56.853 A 24.588 24.588 0 0 0 617.749 56.47 A 14.235 14.235 0 0 0 620.621 55.52 A 11.761 11.761 0 0 0 622.535 54.419 A 9.877 9.877 0 0 0 625.506 51.026 A 11.676 11.676 0 0 0 625.733 50.586 A 10.701 10.701 0 0 0 626.574 48.085 Q 626.822 46.913 626.884 45.555 A 20.31 20.31 0 0 0 626.905 44.629 Q 626.905 41.748 626.123 39.355 A 11.843 11.843 0 0 0 624.772 36.51 A 10.477 10.477 0 0 0 623.804 35.254 A 10.497 10.497 0 0 0 620.229 32.684 A 12.108 12.108 0 0 0 620.02 32.593 A 11.673 11.673 0 0 0 617.261 31.823 A 15.93 15.93 0 0 0 614.795 31.641 A 12.995 12.995 0 0 0 611.919 31.947 A 10.707 10.707 0 0 0 609.79 32.666 A 12.986 12.986 0 0 0 605.884 35.425 Q 604.2 37.158 603.003 39.453 A 29.313 29.313 0 0 0 601.026 44.238 A 30.263 30.263 0 0 0 599.903 49.268 A 38.723 38.723 0 0 0 599.609 52.327 A 31.777 31.777 0 0 0 599.561 54.053 L 599.561 54.834 A 6.293 6.293 0 0 0 599.61 55.615 Z M 116.407 71.729 L 94.971 50.146 A 12.603 12.603 0 0 0 92.275 52.106 A 10.034 10.034 0 0 0 90.162 55.029 A 14.943 14.943 0 0 0 88.79 60.177 A 18.046 18.046 0 0 0 88.721 61.768 A 13.984 13.984 0 0 0 89.078 64.99 A 11.318 11.318 0 0 0 90.064 67.651 A 13.193 13.193 0 0 0 93.653 71.973 A 16.051 16.051 0 0 0 98.755 74.634 A 19.558 19.558 0 0 0 104.688 75.537 A 21.249 21.249 0 0 0 110.889 74.634 A 16.666 16.666 0 0 0 116.407 71.729 Z M 107.129 28.809 Q 107.129 27.1 106.665 25.537 A 8.74 8.74 0 0 0 105.867 23.655 A 7.633 7.633 0 0 0 105.298 22.803 A 6.656 6.656 0 0 0 103.047 20.945 A 7.657 7.657 0 0 0 103.003 20.923 A 6.412 6.412 0 0 0 101.083 20.314 A 8.501 8.501 0 0 0 99.756 20.215 A 10.112 10.112 0 0 0 98.347 20.308 Q 97.593 20.414 96.961 20.642 A 5.407 5.407 0 0 0 96.412 20.874 A 5.878 5.878 0 0 0 94.214 22.705 A 7.222 7.222 0 0 0 93.177 24.775 A 8.655 8.655 0 0 0 92.994 25.439 A 13.943 13.943 0 0 0 92.663 27.703 A 16.749 16.749 0 0 0 92.627 28.809 A 5.875 5.875 0 0 0 92.897 30.533 A 7.782 7.782 0 0 0 93.335 31.641 A 16.195 16.195 0 0 0 94.963 34.301 A 17.849 17.849 0 0 0 95.093 34.473 A 30.955 30.955 0 0 0 97.315 37.061 Q 98.322 38.11 99.185 38.906 A 29.689 29.689 0 0 0 99.463 39.16 A 20.232 20.232 0 0 0 102.145 37.438 A 22.199 22.199 0 0 0 102.32 37.305 Q 103.711 36.23 104.761 34.937 A 11.935 11.935 0 0 0 106.47 32.104 A 8.278 8.278 0 0 0 107.129 28.809 Z" vector-effect="non-scaling-stroke"/></g></svg>